<svg xmlns="http://www.w3.org/2000/svg" width="25.664" height="39" viewBox="0 0 25.664 39"><defs><style>.a{fill:#009ee1;}</style></defs><g transform="translate(-8.6 0.265)"><path class="a" d="M195.306,407.122h-9.612a1.625,1.625,0,0,0-1.625,1.625v.233a1.624,1.624,0,0,0,1.625,1.625h1.593V411a3,3,0,0,0,3,3h.432a3,3,0,0,0,3-3v-.395h1.587a1.625,1.625,0,0,0,1.625-1.625v-.233a1.626,1.626,0,0,0-1.625-1.625" transform="translate(-169.068 -375.266)"/><path class="a" d="M189.006,375.085c-5.406.61-10.608,5.785-11.246,11.19a12.785,12.785,0,0,0,3.525,10.473,8.21,8.21,0,0,1,2.3,5.72h0a1.975,1.975,0,0,0,1.974,1.974h9.872a1.975,1.975,0,0,0,1.974-1.974,8.1,8.1,0,0,1,2.26-5.675,12.824,12.824,0,0,0-10.664-21.709m.244,24.415a1.25,1.25,0,0,1-2.5,0v-5.409a3.087,3.087,0,0,0-3.083-3.084,1.25,1.25,0,1,1,0-2.5,5.59,5.59,0,0,1,5.583,5.584Zm8.083-8.493a3.087,3.087,0,0,0-3.083,3.084V399.5a1.25,1.25,0,0,1-2.5,0v-5.409a5.59,5.59,0,0,1,5.583-5.584,1.25,1.25,0,1,1,0,2.5" transform="translate(-169.068 -375.266)"/></g></svg>