<svg xmlns="http://www.w3.org/2000/svg" width="34.806" height="34.604" viewBox="0 0 34.806 34.604"><defs><style>.a{fill:#009ee1;}</style></defs><g transform="translate(-173.097 -105.198)"><path class="a" d="M183.854,127.672a.5.5,0,0,0-.476-.345h-2.447a7.834,7.834,0,0,0-7.834,7.833v3.477a1.166,1.166,0,0,0,1.166,1.165H187.12a.5.5,0,0,0,.475-.655Zm16.215-.345h-2.44a.5.5,0,0,0-.475.345l-3.741,11.475a.5.5,0,0,0,.475.655h12.849a1.166,1.166,0,0,0,1.166-1.165V135.16A7.833,7.833,0,0,0,200.069,127.327Zm.039-12.521a9.608,9.608,0,1,0-9.608,9.607A9.608,9.608,0,0,0,200.108,114.806Z"/><path class="a" d="M190.5,127.6a1.5,1.5,0,0,0-1.5,1.5v8a1.5,1.5,0,0,0,3,0v-8A1.5,1.5,0,0,0,190.5,127.6Z"/></g></svg>