<svg xmlns="http://www.w3.org/2000/svg" width="35.258" height="37.322" viewBox="0 0 35.258 37.322"><defs><style>.a{fill:#009ee1;}</style></defs><g transform="translate(-376.871 -171.839)"><path class="a" d="M411.589,194.458a2.505,2.505,0,0,0-3.509-.418L401,199.586a1.993,1.993,0,0,1-1.231.426l-5.072.005a1.25,1.25,0,1,1,0-2.5l4.25,0a2.5,2.5,0,0,0-.005-5l-4.707,0-3.213,0h-2.468a6.005,6.005,0,0,0-3.7,1.282l-3.472,2.726a.5.5,0,0,0-.084.7l6.744,8.53a.5.5,0,0,0,.388.19l8.159.069,2.255.019a6.006,6.006,0,0,0,3.772-1.293l8.566-6.773A2.5,2.5,0,0,0,411.589,194.458Z"/><path class="a" d="M379.332,198.784a.5.5,0,0,0-.7-.082l-1.569,1.24a.5.5,0,0,0-.082.7l6.583,8.327a.5.5,0,0,0,.7.082l1.569-1.24a.5.5,0,0,0,.082-.7Zm19.22-26.945a8.806,8.806,0,1,0,8.807,8.806A8.807,8.807,0,0,0,398.552,171.839Zm-.49,7.113L400.1,180a3.067,3.067,0,0,1,1.64,3.264,2.984,2.984,0,0,1-1.759,2.3v.271a1.25,1.25,0,0,1-2.5,0v-.191a3.69,3.69,0,0,1-2.227-2.032,1.25,1.25,0,1,1,2.293-1,1.206,1.206,0,0,0,1.208.718.533.533,0,0,0,.517-.462.6.6,0,0,0-.316-.646l-2.033-1.046a3.083,3.083,0,0,1-1.623-3.333,3,3,0,0,1,2.181-2.393v-.186a1.25,1.25,0,0,1,2.5,0v.459a3.667,3.667,0,0,1,1.783,1.84,1.25,1.25,0,0,1-2.293,1,1.2,1.2,0,0,0-1.209-.719.535.535,0,0,0-.5.461A.576.576,0,0,0,398.062,178.952Z"/></g></svg>