<svg xmlns="http://www.w3.org/2000/svg" width="60.986" height="53" viewBox="0 0 60.986 53"><defs><style>.a{fill:#009ee1;}</style></defs><g transform="translate(-14240 -1808.25)"><g transform="translate(14260 1818.925)"><path class="a" d="M137.9,243.422h-1.076a1.076,1.076,0,0,0-1.076,1.076v13.99a1.077,1.077,0,0,0,1.076,1.076H137.9a1.077,1.077,0,0,0,1.076-1.076V244.5a1.076,1.076,0,0,0-1.076-1.076" transform="translate(-118.263 -243.422)"/><path class="a" d="M119.05,246.294l-12.107,3.4a.27.27,0,0,0-.2.259v8.561a1.794,1.794,0,0,0,1.5,1.769l3.946.657a1.725,1.725,0,0,0,.3.025,1.792,1.792,0,0,0,1.792-1.793v-.754l4.772,1.294a.269.269,0,0,0,.34-.259v-12.9a.269.269,0,0,0-.342-.259m-6.384,12.883a.174.174,0,0,1-.063.137.17.17,0,0,1-.145.04h0l-3.946-.657a.179.179,0,0,1-.15-.177v-1.7l4.3,1.167Zm-7.533-9.052h-.807a1.076,1.076,0,0,0-1.076,1.076v3.767a1.077,1.077,0,0,0,1.076,1.076h.807a.269.269,0,0,0,.269-.269v-5.381a.269.269,0,0,0-.269-.269" transform="translate(-103.25 -244.744)"/></g><path class="a" d="M363.582,308.25H308.4a2.905,2.905,0,0,0-2.9,2.9v36.3a2.905,2.905,0,0,0,2.9,2.9h21.66l-1.089,6.534h-5.325a2.178,2.178,0,0,0,0,4.356h24.685a2.178,2.178,0,0,0,0-4.356h-5.325l-1.089-6.534h21.66a2.905,2.905,0,0,0,2.9-2.9v-36.3a2.905,2.905,0,0,0-2.9-2.9m-27.589,39.932A2.178,2.178,0,1,1,338.171,346a2.179,2.179,0,0,1-2.178,2.178m24.685-7.986h-49.37V314.058h49.37Z" transform="translate(13934.5 1500)"/></g></svg>