<svg xmlns="http://www.w3.org/2000/svg" width="60.31" height="53" viewBox="0 0 60.31 53"><defs><style>.a{fill:#009ee1;}</style></defs><g transform="translate(-1566.345 -1377)"><path class="a" d="M230.655,244h-53A3.656,3.656,0,0,0,174,247.655v10.966a3.656,3.656,0,0,0,3.655,3.655h53a3.656,3.656,0,0,0,3.655-3.655V247.655A3.657,3.657,0,0,0,230.655,244m-45.69,12.793a3.655,3.655,0,1,1,3.655-3.655,3.656,3.656,0,0,1-3.655,3.655m12.793,0a3.655,3.655,0,1,1,3.655-3.655,3.656,3.656,0,0,1-3.655,3.655m28.328-1.371H211.466a2.284,2.284,0,1,1,0-4.569h14.621a2.284,2.284,0,0,1,0,4.569m4.569,12.336h-53A3.656,3.656,0,0,0,174,271.414v10.966a3.656,3.656,0,0,0,3.655,3.655h53a3.657,3.657,0,0,0,3.655-3.655V271.414a3.657,3.657,0,0,0-3.655-3.655m-45.69,12.793a3.655,3.655,0,1,1,3.655-3.655,3.657,3.657,0,0,1-3.655,3.655m12.793,0a3.655,3.655,0,1,1,3.655-3.655,3.656,3.656,0,0,1-3.655,3.655m28.328-1.371H211.466a2.284,2.284,0,1,1,0-4.569h14.621a2.284,2.284,0,1,1,0,4.569" transform="translate(1392.345 1133)"/><path class="a" d="M224.931,270h-45.69a2.741,2.741,0,0,0,0,5.483h45.69a2.741,2.741,0,0,0,0-5.483" transform="translate(1394.414 1154.517)"/></g></svg>