<svg xmlns="http://www.w3.org/2000/svg" width="65.001" height="53.664" viewBox="0 0 65.001 53.664"><defs><style>.a{fill:#009ee1;}</style></defs><g transform="translate(-1564.999 -1376.669)"><path class="a" d="M110.332,379.5a.752.752,0,0,0-1.036-.17A10.117,10.117,0,0,0,107.9,394.37l12.486,13.381-2.254,3.04a6.226,6.226,0,0,1-4.8,2.436,9.8,9.8,0,0,0-8.093,4.9,9.919,9.919,0,0,0,2.325,12.537,9.75,9.75,0,0,0,6.158,2.192,10.067,10.067,0,0,0,1.465-.11,9.8,9.8,0,0,0,8-12.354,5.926,5.926,0,0,1,1.505-5.581l1.136-1.22.014.014V400.424ZM118,426.178v0a5.283,5.283,0,1,1-1.1-7.4,5.263,5.263,0,0,1,1.1,7.4" transform="translate(1461.046 997.48)"/><path class="a" d="M156.789,380.528H131.38v6.133a.877.877,0,0,1-.876.876h-5.257a.877.877,0,0,1-.876-.876v-6.133h-4.537a.877.877,0,0,0-.876.876v49.067a.877.877,0,0,0,.876.876h4.537v-6.133a.877.877,0,0,1,.876-.876H130.5a.877.877,0,0,1,.876.876v6.133h25.41a.877.877,0,0,0,.876-.876V381.4a.877.877,0,0,0-.876-.876M131.38,418.2a.877.877,0,0,1-.876.876h-5.257a.877.877,0,0,1-.876-.876v-8.762a.876.876,0,0,1,.876-.876H130.5a.876.876,0,0,1,.876.876Zm0-15.771a.877.877,0,0,1-.876.876h-5.257a.877.877,0,0,1-.876-.876v-8.762a.876.876,0,0,1,.876-.876H130.5a.876.876,0,0,1,.876.876Z" transform="translate(1472.335 998.487)"/></g></svg>