<svg xmlns="http://www.w3.org/2000/svg" width="51" height="60.373" viewBox="0 0 51 60.373"><defs><style>.a{fill:#009ee1;}</style></defs><g transform="translate(-1574 -1372.314)"><path class="a" d="M343.926,128.284a8.62,8.62,0,1,1-8.615-8.907,8.147,8.147,0,0,1,1.156.091l4.932-4.934a14.479,14.479,0,0,0-6.088-1.35,15.1,15.1,0,1,0,14.807,15.1,15.271,15.271,0,0,0-1.2-5.944l-5.037,5.036c.029.3.043.6.043.909m6.861,19.951a25.138,25.138,0,0,0,8.526-27.854l-1.375,1.376a5.3,5.3,0,0,1-3.773,1.56c-.152,0-.3-.028-.451-.04a19.073,19.073,0,1,1-12.65-13.2,5.329,5.329,0,0,1,1.55-3.652l1.732-1.732a25.26,25.26,0,0,0-23.3,44.441l-4.161,11.1a2.321,2.321,0,1,0,4.347,1.632l3.918-10.448a25.088,25.088,0,0,0,8.615,2.071v7.561a2.322,2.322,0,0,0,4.644,0v-7.692a25.05,25.05,0,0,0,8.378-2.573l4.155,11.081a2.322,2.322,0,1,0,4.347-1.632Z" transform="translate(1263.973 1269.314)"/><path class="a" d="M352.894,111.1l-4.4-1.694a1.466,1.466,0,0,1-.842-.842l-1.692-4.4a1.466,1.466,0,0,0-2.4-.511l-5.395,5.395a1.464,1.464,0,0,0-.331,1.562l1.42,3.69-9.265,9.265a4.984,4.984,0,1,0,2.735,2.738l8.921-8.923,4.81,1.85a1.466,1.466,0,0,0,1.562-.331L353.4,113.5a1.465,1.465,0,0,0-.509-2.4" transform="translate(1271.166 1269.435)"/></g></svg>