<svg xmlns="http://www.w3.org/2000/svg" width="32.042" height="54.332" viewBox="0 0 32.042 54.332"><defs><style>.a{fill:#009ee1;}</style></defs><g transform="translate(-1577.907 -1378.668)"><path class="a" d="M387.179,339.042V315.359a1.394,1.394,0,0,1,1.393-1.393H405.29a1.393,1.393,0,0,1,1.393,1.393v17.415a6.453,6.453,0,0,1,1.028.081,6.662,6.662,0,0,1,3.143,1.452h.008V312.572A5.573,5.573,0,0,0,405.29,307H388.573A5.573,5.573,0,0,0,383,312.572v29.38a7.261,7.261,0,0,1,4.443-2.143,1.345,1.345,0,0,1-.263-.768m25.544-1.355a3.918,3.918,0,0,0-3.019.931,3.275,3.275,0,0,0-2.554-2.324,3.867,3.867,0,0,0-2.887.834,3.579,3.579,0,0,0-2.686-2.228,3.906,3.906,0,0,0-3.254,1.219v-8.8a2.854,2.854,0,0,0-1.878-2.761,2.8,2.8,0,0,0-3.695,2.643v22.29a2.787,2.787,0,0,1-2.786-2.786v-2.517a.965.965,0,0,0-.965-.965h-.842a3.765,3.765,0,0,0-3.766,3.766v6.878a4.176,4.176,0,0,0,1.425,3.143l3.75,3.288a4.183,4.183,0,0,0,2.754,1.036h15.416a4.185,4.185,0,0,0,2.955-1.225l3.123-3.123a4.183,4.183,0,0,0,1.225-2.958V340.584a2.89,2.89,0,0,0-2.318-2.9" transform="translate(1194.907 1071.668)"/><path class="a" d="M391.394,313.989h-2.8a.7.7,0,0,0-.7.7v2.8a.7.7,0,0,0,.7.7h2.8a.7.7,0,0,0,.7-.7v-2.8a.7.7,0,0,0-.7-.7m6.966,0h-2.8a.7.7,0,0,0-.7.7v2.8a.7.7,0,0,0,.7.7h2.8a.7.7,0,0,0,.7-.7v-2.8a.7.7,0,0,0-.7-.7" transform="translate(1196.832 1074.416)"/></g></svg>