<svg xmlns="http://www.w3.org/2000/svg" width="46.553" height="61" viewBox="0 0 46.553 61"><defs><style>.a{fill:#009ee1;}</style></defs><g transform="translate(-1580.224 -1372)"><path class="a" d="M320.026,113.132H342.5l.01,0h8.017v-3.212a6.421,6.421,0,0,0-6.421-6.421H318.421A6.421,6.421,0,0,0,312,109.921v48.158a6.421,6.421,0,0,0,6.421,6.421h25.684a6.421,6.421,0,0,0,6.421-6.421v-12.84h-6.421v3.209a1.606,1.606,0,0,1-1.605,1.605H320.026a1.6,1.6,0,0,1-1.605-1.605V114.737a1.6,1.6,0,0,1,1.605-1.605m12.842,47.355h-3.211a3.211,3.211,0,0,1,0-6.421h3.211a3.211,3.211,0,0,1,0,6.421" transform="translate(1268.224 1268.5)"/><path class="a" d="M350.5,112H323.211A3.211,3.211,0,0,0,320,115.212v22.474a1.605,1.605,0,0,0,2.568,1.284l3-2.247a3.216,3.216,0,0,1,1.926-.642H350.5a3.211,3.211,0,0,0,3.211-3.211V115.212A3.21,3.21,0,0,0,350.5,112m-20.353,17.563a2,2,0,0,1-2.83-.194l-3.211-3.686a2.006,2.006,0,0,1-.1-2.511l3.211-4.341a2.006,2.006,0,0,1,3.227,2.385l-2.252,3.047,2.151,2.469a2,2,0,0,1-.194,2.83m10.248-10.609-3.1,11.237a2.01,2.01,0,0,1-1.934,1.472,2.05,2.05,0,0,1-.535-.072,2.008,2.008,0,0,1-1.4-2.469l3.1-11.237a2.007,2.007,0,1,1,3.869,1.069m9.311,5.949-3.211,4.341a2.006,2.006,0,0,1-3.227-2.385l2.252-3.047-2.151-2.469a2.006,2.006,0,1,1,3.024-2.636l3.212,3.686a2.008,2.008,0,0,1,.1,2.511" transform="translate(1273.066 1273.645)"/></g></svg>