<svg xmlns="http://www.w3.org/2000/svg" width="62.224" height="57.266" viewBox="0 0 62.224 57.266"><defs><style>.a{fill:#009ee1;}</style></defs><g transform="translate(-1564.447 -1377.603)"><path class="a" d="M294.058,354.775a2.44,2.44,0,0,0-2.439,2.439v3.252c0,.332-.519.813-1.332.813H250.672c-.813,0-1.332-.481-1.332-.813v-3.252a2.439,2.439,0,0,0-4.878,0v3.252a5.975,5.975,0,0,0,6.21,5.691h39.615a5.975,5.975,0,0,0,6.21-5.691v-3.252a2.44,2.44,0,0,0-2.439-2.439m-44.44-17.658a4.884,4.884,0,0,1,4.878-4.878h31.966a4.884,4.884,0,0,1,4.878,4.878v10.856A21.032,21.032,0,1,0,260,325.412a13.714,13.714,0,1,0-10.383,25.111Z" transform="translate(1325.08 1068.711)"/><path class="a" d="M280.95,325.749H248.984a.813.813,0,0,0-.813.813v19.513a.813.813,0,0,0,.813.813H280.95a.812.812,0,0,0,.813-.813V326.562a.812.812,0,0,0-.813-.813m-22.779,16.167a2.03,2.03,0,0,1-2.867-.2l-3.252-3.734a2.034,2.034,0,0,1-.1-2.543l3.252-4.4a2.032,2.032,0,0,1,3.269,2.416l-2.28,3.086,2.177,2.5a2.029,2.029,0,0,1-.2,2.867m10.381-10.747-3.143,11.383a2.036,2.036,0,0,1-1.96,1.491,2.076,2.076,0,0,1-.541-.073,2.034,2.034,0,0,1-1.42-2.5l3.145-11.383a2.033,2.033,0,1,1,3.919,1.083m9.431,6.026-3.252,4.4a2.032,2.032,0,1,1-3.268-2.416l2.281-3.086-2.179-2.5a2.032,2.032,0,1,1,3.063-2.67l3.254,3.734a2.034,2.034,0,0,1,.1,2.543" transform="translate(1330.592 1079.266)"/></g></svg>