<svg xmlns="http://www.w3.org/2000/svg" width="61" height="53" viewBox="0 0 61 53"><defs><style>.a{fill:#009ee1;}</style></defs><g transform="translate(-1641.5 -1451.25)"><path class="a" d="M295.6,129.661h-2.9V136.2H243.309V110.058h21.06v-2.9a6.456,6.456,0,0,1,.712-2.9H240.4a2.905,2.905,0,0,0-2.9,2.9v36.3a2.905,2.905,0,0,0,2.9,2.9H262.07l-1.089,6.534h-5.326a2.178,2.178,0,1,0,0,4.356h24.691a2.178,2.178,0,1,0,0-4.356h-5.326l-1.089-6.534H295.6a2.906,2.906,0,0,0,2.9-2.9V128.949a6.46,6.46,0,0,1-2.9.712M268,144.182A2.178,2.178,0,1,1,270.179,142,2.178,2.178,0,0,1,268,144.182" transform="translate(1404 1347)"/><path class="a" d="M286.445,104.25h-25a2.942,2.942,0,0,0-2.942,2.942v20.591a1.471,1.471,0,0,0,2.353,1.177L263.6,126.9a2.946,2.946,0,0,1,1.765-.588h21.081a2.942,2.942,0,0,0,2.942-2.942V107.192a2.941,2.941,0,0,0-2.942-2.942M267.8,120.343a1.836,1.836,0,0,1-2.593-.178l-2.942-3.377a1.838,1.838,0,0,1-.093-2.3l2.942-3.977a1.838,1.838,0,0,1,2.956,2.186L266,115.488l1.971,2.262a1.836,1.836,0,0,1-.178,2.593m9.389-9.721-2.843,10.3a1.842,1.842,0,0,1-1.772,1.349,1.878,1.878,0,0,1-.49-.066,1.84,1.84,0,0,1-1.284-2.262l2.845-10.3a1.839,1.839,0,1,1,3.545.98m8.531,5.451-2.942,3.977a1.838,1.838,0,0,1-2.956-2.186l2.064-2.792-1.971-2.262a1.838,1.838,0,1,1,2.771-2.415l2.943,3.377a1.84,1.84,0,0,1,.091,2.3" transform="translate(1413.113 1347)"/></g></svg>